<svg xmlns="http://www.w3.org/2000/svg" viewBox="0 0 576 512">
  <!-- Define the linear gradient -->
  <defs>
    <linearGradient id="gradient1" x1="0%" y1="50%" x2="100%" y2="50%">
      <stop offset="0%" style="stop-color: #FF6A00; stop-opacity: 1" />
      <stop offset="100%" style="stop-color: #FF8000; stop-opacity: 1" />
    </linearGradient>
  </defs>

  <!-- Apply the gradient to the path -->
  <path fill="url(#gradient1)" d="M0 80C0 53.5 21.5 32 48 32l96 0c26.5 0 48 21.5 48 48l0 16 192 0 0-16c0-26.5 21.5-48 48-48l96 0c26.5 0 48 21.5 48 48l0 96c0 26.5-21.5 48-48 48l-96 0c-26.5 0-48-21.5-48-48l0-16-192 0 0 16c0 1.7-.1 3.4-.3 5L272 288l96 0c26.5 0 48 21.5 48 48l0 96c0 26.5-21.5 48-48 48l-96 0c-26.5 0-48-21.5-48-48l0-96c0-1.7 .1-3.4 .3-5L144 224l-96 0c-26.5 0-48-21.5-48-48L0 80z"/>
</svg>
