<!DOCTYPE svg PUBLIC "-//W3C//DTD SVG 1.1//EN" "http://www.w3.org/Graphics/SVG/1.1/DTD/svg11.dtd">

<!-- Uploaded to: SVG Repo, www.svgrepo.com, Transformed by: SVG Repo Mixer Tools -->
<svg width="75px" height="75px" viewBox="0 0 50 50" id="Message_And_Communication_Icons" version="1.1" xml:space="preserve" xmlns="http://www.w3.org/2000/svg" xmlns:xlink="http://www.w3.org/1999/xlink" fill="#000000">

<g id="SVGRepo_bgCarrier" stroke-width="0"/>

<g id="SVGRepo_tracerCarrier" stroke-linecap="round" stroke-linejoin="round"/>

<g id="SVGRepo_iconCarrier"> <g> <g> <g> <g> <g> <path d="M38.5,9.3v1.1h3.4V4.6H25.3v4.3H38C38.3,8.9,38.5,9.1,38.5,9.3z" style="fill:#f4977b"/> </g> </g> <g> <g> <path d="M38.5,23.9v16.9c0,0.3-0.2,0.5-0.5,0.5c0,0-10,0-10.6,0c-0.6,0-0.4,0.2-0.3,0.4 c0.2,0.3,0.3,0.7,0.3,1.1c0,1.2-0.9,2.1-2.1,2.1V47h16.6V23.9H38.5z" style="fill:#f4977b"/> </g> </g> </g> <g> <g> <polygon points="41.2,46.2 9.5,46.2 9.5,4 41.2,4 41.2,8.8 40,8.8 40,5.2 10.7,5.2 10.7,45 40,45 40,24.8 41.2,24.8 " style="fill:#000000;"/> </g> </g> <g> <g> <g> <rect height="1.2" style="fill:#000000;" width="4.1" x="23.3" y="6.6"/> </g> </g> </g> <g> <g> <path d="M25.3,44.2c-0.8,0-1.5-0.7-1.5-1.5s0.7-1.5,1.5-1.5s1.5,0.7,1.5,1.5S26.2,44.2,25.3,44.2z M25.3,42.4c-0.2,0-0.3,0.1-0.3,0.3c0,0.2,0.1,0.3,0.3,0.3s0.3-0.1,0.3-0.3C25.6,42.5,25.5,42.4,25.3,42.4z" style="fill:#000000;"/> </g> </g> <g> <g> <rect height="28.2" style="fill:#000000;" width="1.2" x="11.6" y="11"/> </g> </g> </g> <g> <g> <g> <polygon points="42.2,11.8 42.2,21.3 26.6,21.3 26.6,26.7 29.7,23.9 46.1,23.9 46.1,11.8 " style="fill:##f4977b"/> </g> </g> <g> <g> <path d="M24.7,26.8V9.9h20.6v13.3H28.7L24.7,26.8z M25.9,11.1v13l2.3-2.1h15.9V11.1H25.9z" style="fill:#000000;"/> </g> </g> <g> <g> <g> <rect height="1.2" style="fill:#000000;" width="2.3" x="37.1" y="14.3"/> </g> </g> <g> <g> <rect height="1.2" style="fill:#000000;" width="4.6" x="30.8" y="14.3"/> </g> </g> <g> <g> <rect height="1.2" style="fill:#000000;" width="8.6" x="30.8" y="17.6"/> </g> </g> </g> </g> </g> </g>

</svg>