<!DOCTYPE svg PUBLIC "-//W3C//DTD SVG 1.1//EN" "http://www.w3.org/Graphics/SVG/1.1/DTD/svg11.dtd">

<!-- Uploaded to: SVG Repo, www.svgrepo.com, Transformed by: SVG Repo Mixer Tools -->
<svg width="75px" height="75px" viewBox="0 0 50 50" id="Message_And_Communication_Icons" version="1.1" xml:space="preserve" xmlns="http://www.w3.org/2000/svg" xmlns:xlink="http://www.w3.org/1999/xlink" fill="#000000" transform="matrix(-1, 0, 0, 1, 0, 0)">

<g id="SVGRepo_blackgCarrier" stroke-width="0"/>

<g id="SVGRepo_tracerCarrier" stroke-linecap="round" stroke-linejoin="round"/>

<g id="SVGRepo_iconCarrier"> <g> <g> <g> <g> <polygon points="42.1,28.5 42.1,42.5 25.1,42.5 25.1,44.5 45.1,44.5 45.1,28.5 " style="fill:#f4977b;"/> </g> </g> <g> <g> <path d="M44.7,44.1h-38V31.5l-4.2-4.6h42.2V44.1z M7.8,42.9h35.6V28.1H5.2l2.7,3V42.9z" style="fill:black;"/> </g> </g> <g> <g> <g> <path d="M9.7,29.7v11.7h2.6v-0.7c0-1.9,1.6-3.5,3.5-3.5c1.9,0,3.5,1.6,3.5,3.5l0,0.7h2.2V29.7H9.7z M15.7,36.5c-1.4,0-2.5-1.2-2.5-2.6s1.2-2.5,2.6-2.5c1.4,0,2.5,1.2,2.5,2.6C18.3,35.4,17.1,36.5,15.7,36.5z" style="fill:#f4977b;"/> </g> </g> <g> <g> <path d="M15.7,37.1C15.7,37.1,15.7,37.1,15.7,37.1c-0.9,0-1.7-0.3-2.2-0.9c-0.6-0.6-0.9-1.4-0.9-2.2 c0-1.7,1.4-3.1,3.1-3.1c0,0,0,0,0,0c0.8,0,1.6,0.3,2.2,0.9c0.6,0.6,0.9,1.4,0.9,2.2C18.9,35.7,17.4,37.1,15.7,37.1z M15.7,32 c-1.1,0-1.9,0.9-1.9,1.9c0,0.5,0.2,1,0.6,1.4s0.8,0.6,1.4,0.6c0,0,0,0,0,0c1.1,0,1.9-0.9,1.9-1.9l0.6,0l-0.6,0 c0-0.5-0.2-1-0.6-1.4C16.8,32.2,16.3,32,15.7,32C15.7,32,15.7,32,15.7,32z" style="fill:black;"/> </g> </g> <g> <g> <path d="M18.6,41.4l0-0.7c0-0.8-0.3-1.5-0.8-2.1c-0.5-0.6-1.3-0.9-2-0.9c0,0,0,0,0,0 c-0.8,0-1.5,0.3-2,0.8c-0.6,0.5-0.9,1.3-0.9,2v0.7h-1.2v-0.7c0-1.1,0.5-2.1,1.2-2.9s1.8-1.2,2.9-1.2c1.1,0,2.1,0.5,2.9,1.2 c0.8,0.8,1.2,1.8,1.2,2.9l0,0.6L18.6,41.4z" style="fill:black;"/> </g> </g> </g> <g> <g> <g> <rect height="1.2" style="fill:black;" width="3.6" x="35.5" y="31.5"/> </g> </g> <g> <g> <rect height="1.2" style="fill:black;" width="7.5" x="25.6" y="31.5"/> </g> </g> <g> <g> <rect height="1.2" style="fill:black;" width="13.5" x="25.6" y="34.9"/> </g> </g> <g> <g> <rect height="1.2" style="fill:black;" width="7.2" x="31.8" y="38.4"/> </g> </g> <g> <g> <rect height="1.2" style="fill:black;" width="3.9" x="25.6" y="38.4"/> </g> </g> </g> </g> <g> <g> <g> <polygon points="44.8,21.3 44.8,9 41.8,9 41.8,19.3 45.2,23 25,23 25,25 48.2,25 " style="fill:#f4977b"/> </g> </g> <g> <g> <path d="M48.5,24.6H6.3V7.4h38V20L48.5,24.6z M7.5,23.4h38.3l-2.7-3V8.6H7.5V23.4z" style="fill:black;"/> </g> </g> <g> <g> <g> <path d="M28.2,10.2V22h2.6v-0.7c0-1.9,1.6-3.5,3.5-3.5c1.9,0,3.5,1.6,3.5,3.5l0,0.7h2.2V10.2H28.2z M34.2,17c-1.4,0-2.5-1.2-2.5-2.6c0-1.4,1.2-2.5,2.6-2.5c1.4,0,2.5,1.2,2.5,2.6S35.6,17,34.2,17z" style="fill:#f4977b"/> </g> </g> <g> <g> <path d="M34.2,17.6C34.2,17.6,34.2,17.6,34.2,17.6c-0.9,0-1.7-0.3-2.2-0.9s-0.9-1.4-0.9-2.2 c0-0.8,0.3-1.6,0.9-2.2c0.6-0.6,1.4-0.9,2.2-0.9c1.7,0,3.1,1.4,3.1,3.2v0C37.3,16.2,35.9,17.6,34.2,17.6z M34.2,12.6 c-0.5,0-1,0.2-1.4,0.6c-0.4,0.4-0.6,0.8-0.6,1.4c0,0.5,0.2,1,0.6,1.4c0.4,0.4,0.8,0.6,1.4,0.6c0,0,0,0,0,0 c1.1,0,1.9-0.9,1.9-1.9l0,0C36.2,13.4,35.3,12.6,34.2,12.6C34.2,12.6,34.2,12.6,34.2,12.6z" style="fill:black;"/> </g> </g> <g> <g> <path d="M38.3,22h-1.2v-0.7c0-0.8-0.3-1.5-0.8-2.1s-1.3-0.9-2-0.9c0,0,0,0,0,0c-0.8,0-1.5,0.3-2,0.8 c-0.6,0.5-0.9,1.3-0.9,2V22h-1.2v-0.7c0-1.1,0.5-2.1,1.2-2.9c0.8-0.8,1.8-1.2,2.9-1.2c1.1,0,2.1,0.5,2.9,1.2 c0.8,0.8,1.2,1.8,1.2,2.9V22z" style="fill:black;"/> </g> </g> </g> <g> <g> <g> <rect height="1.2" style="fill:black;" width="3.6" x="21.4" y="12.1"/> </g> </g> <g> <g> <rect height="1.2" style="fill:black;" width="7.5" x="11.5" y="12.1"/> </g> </g> <g> <g> <rect height="1.2" style="fill:black;" width="13.5" x="11.5" y="15.5"/> </g> </g> <g> <g> <rect height="1.2" style="fill:black;" width="7.2" x="17.8" y="18.9"/> </g> </g> <g> <g> <rect height="1.2" style="fill:black;" width="3.9" x="11.5" y="18.9"/> </g> </g> </g> </g> </g> </g>

</svg>