<svg version="1.1" id="Layer_1" xmlns="http://www.w3.org/2000/svg" xmlns:xlink="http://www.w3.org/1999/xlink" x="0px" y="0px"
	 width="100%" viewBox="0 0 200 200" enable-background="new 0 0 200 200" xml:space="preserve">
<path fill="#020100" opacity="1.000000" stroke="none" 
	d="
M127.000000,201.000000 
	C84.692825,201.000000 42.885651,201.000000 1.039238,201.000000 
	C1.039238,134.401199 1.039238,67.802368 1.039238,1.101770 
	C67.556999,1.101770 134.114197,1.101770 200.835693,1.101770 
	C200.835693,67.666336 200.835693,134.333130 200.835693,201.000000 
	C176.469315,201.000000 151.984665,201.000000 127.000000,201.000000 
M92.021233,158.071381 
	C94.871796,163.227570 92.297310,167.593979 89.270599,172.135864 
	C88.164307,171.229050 87.029106,170.355057 85.956329,169.410187 
	C78.016235,162.416794 66.271690,164.202072 61.090176,173.295822 
	C59.960808,175.277908 59.272282,177.511215 58.197685,180.063553 
	C50.286057,180.063553 42.139500,180.031647 33.993336,180.074615 
	C28.438459,180.103928 25.206669,182.556305 25.115864,186.670975 
	C25.022045,190.922272 27.957851,193.145187 33.853333,193.101608 
	C79.496063,192.764297 125.138680,192.408966 170.781158,192.038742 
	C176.154022,191.995163 179.231094,189.636215 179.308075,185.671204 
	C179.387863,181.561554 176.143997,179.074814 170.539719,179.052414 
	C162.429672,179.019974 154.319412,179.044113 146.440475,179.044113 
	C141.804474,167.923325 135.734604,163.180923 126.918083,165.176559 
	C122.563843,166.162140 118.791283,169.717514 114.842705,171.182739 
	C114.037766,165.569168 113.232819,159.955597 112.219276,153.706375 
	C109.133392,150.585785 106.334770,147.086960 102.874733,144.458984 
	C99.868446,142.175644 97.662186,139.908676 97.968391,135.286484 
	C99.217796,130.228806 102.882675,128.519287 107.622017,128.453110 
	C118.403923,128.302521 129.188446,128.088623 139.967392,128.234695 
	C141.676697,128.257874 143.362457,130.020599 145.159775,131.657074 
	C149.770477,139.791306 156.699188,143.858704 166.082245,143.152069 
	C174.716095,142.501846 181.068741,138.374725 184.862289,129.478149 
	C184.943710,125.639305 185.025131,121.800461 185.024399,117.138145 
	C184.674957,115.242050 184.733398,113.142853 183.907410,111.484062 
	C179.720764,103.076363 170.436295,98.393250 161.237152,99.780998 
	C151.489655,101.251472 144.732681,108.013649 142.405243,118.566612 
	C131.613235,118.699013 120.821388,118.863174 110.028984,118.920563 
	C108.786507,118.927170 107.540878,118.338814 106.494446,117.127663 
	C106.339638,112.751442 106.184830,108.375229 106.211029,103.147194 
	C105.656570,99.627510 107.176102,98.573441 110.647842,98.696892 
	C114.948715,98.849815 120.040710,99.740486 123.428169,97.858955 
	C130.712204,93.813133 138.452316,91.532913 146.910980,88.998894 
	C156.565582,82.543144 159.073639,72.689407 153.353317,63.688076 
	C147.970612,55.217999 137.037186,52.446644 128.398392,57.362621 
	C119.205147,62.594105 116.521690,73.311737 121.833382,83.287689 
	C122.427040,84.402641 122.588959,85.747475 122.254158,87.301689 
	C118.272614,87.855026 114.281708,88.349480 110.312462,88.980209 
	C107.098808,89.490875 105.818069,88.062080 106.096375,84.074532 
	C106.096375,75.624207 106.096375,67.173889 106.096375,58.782665 
	C108.209991,57.780273 110.103279,56.882374 112.691551,55.901394 
	C129.343079,46.675301 131.037903,25.286882 116.041382,13.626894 
	C104.292397,4.491899 87.044853,7.517725 78.966866,20.131052 
	C71.130035,32.367851 75.246513,48.575291 88.323753,55.833893 
	C90.564140,56.752453 92.804527,57.671013 95.789368,58.894798 
	C95.789368,67.572784 95.789368,76.297440 95.550179,85.908012 
	C95.160172,86.898460 94.725883,88.765953 94.386757,88.748825 
	C88.565849,88.454872 82.444977,90.800446 77.081764,86.287865 
	C77.799484,85.176338 78.574493,84.097267 79.225800,82.948097 
	C84.114342,74.322685 80.801590,63.269493 71.790749,58.067776 
	C63.190533,53.103104 52.150272,55.956638 47.008785,64.473068 
	C41.726116,73.223358 44.231277,83.616982 53.352325,89.733360 
	C55.706009,90.497803 58.064629,91.903641 60.412289,91.885574 
	C64.570992,91.853577 67.658463,92.911049 70.959625,95.743896 
	C73.445625,97.877213 77.597832,98.519432 81.108337,98.897865 
	C85.832245,99.407104 90.652336,99.024170 95.479630,99.024170 
	C95.703682,101.066315 95.864594,102.532913 95.841866,104.774666 
	C95.672661,110.094780 94.004311,114.681412 88.670891,117.975914 
	C78.758217,118.314796 68.845833,118.664124 58.931610,118.949028 
	C58.584808,118.959000 58.219566,118.327377 57.892094,117.263206 
	C57.165939,115.438271 56.576069,113.544106 55.690296,111.800247 
	C51.619633,103.786209 41.186562,99.121910 31.943226,101.096687 
	C23.364750,102.929428 16.501261,110.498344 15.409168,119.611198 
	C16.455894,124.412552 17.502621,129.213898 18.773458,134.593994 
	C28.267855,149.722198 50.135841,145.503067 55.911617,133.176620 
	C57.126022,131.794327 58.287041,129.275436 59.563557,129.215485 
	C67.440239,128.845551 75.342949,129.029755 83.269730,129.029755 
	C82.622536,131.473862 82.038849,133.678131 81.188446,136.623123 
	C79.701561,146.113647 85.274605,151.964539 92.021233,158.071381 
z"/>
<path fill="#FC4900" opacity="1.000000" stroke="none" 
	d="
M114.755524,172.110138 
	C118.791283,169.717514 122.563843,166.162140 126.918083,165.176559 
	C135.734604,163.180923 141.804474,167.923325 146.440475,179.044113 
	C154.319412,179.044113 162.429672,179.019974 170.539719,179.052414 
	C176.143997,179.074814 179.387863,181.561554 179.308075,185.671204 
	C179.231094,189.636215 176.154022,191.995163 170.781158,192.038742 
	C125.138680,192.408966 79.496063,192.764297 33.853333,193.101608 
	C27.957851,193.145187 25.022045,190.922272 25.115864,186.670975 
	C25.206669,182.556305 28.438459,180.103928 33.993336,180.074615 
	C42.139500,180.031647 50.286057,180.063553 58.197685,180.063553 
	C59.272282,177.511215 59.960808,175.277908 61.090176,173.295822 
	C66.271690,164.202072 78.016235,162.416794 85.956329,169.410187 
	C87.029106,170.355057 88.164307,171.229050 89.924728,172.318970 
	C97.835487,172.923447 105.089958,173.398956 112.351860,173.687683 
	C113.130943,173.718674 113.953262,172.662170 114.755524,172.110138 
z"/>
<path fill="#FC6600" opacity="1.000000" stroke="none" 
	d="
M57.862919,117.994797 
	C58.219566,118.327377 58.584808,118.959000 58.931610,118.949028 
	C68.845833,118.664124 78.758217,118.314796 89.561920,117.941467 
	C95.734200,117.946785 101.015450,117.986542 106.296707,118.026299 
	C107.540878,118.338814 108.786507,118.927170 110.028984,118.920563 
	C120.821388,118.863174 131.613235,118.699013 143.137054,118.321030 
	C157.614761,118.037498 171.360641,117.999557 185.106537,117.961617 
	C185.025131,121.800461 184.943710,125.639305 184.144119,129.783478 
	C170.636993,130.385559 157.848053,130.682312 145.059097,130.979050 
	C143.362457,130.020599 141.676697,128.257874 139.967392,128.234695 
	C129.188446,128.088623 118.403923,128.302521 107.622017,128.453110 
	C102.882675,128.519287 99.217796,130.228806 97.399719,135.639114 
	C91.705750,135.955292 86.580452,135.918839 81.455162,135.882385 
	C82.038849,133.678131 82.622536,131.473862 83.269730,129.029755 
	C75.342949,129.029755 67.440239,128.845551 59.563557,129.215485 
	C58.287041,129.275436 57.126022,131.794327 55.322426,133.154327 
	C53.987915,132.808609 53.245102,132.210190 52.496902,132.203369 
	C42.457127,132.111938 32.415722,132.033417 22.377350,132.160080 
	C21.093752,132.176270 19.824986,133.368073 18.549347,134.015259 
	C17.502621,129.213898 16.455894,124.412552 16.077179,119.282135 
	C23.533514,118.968826 30.325062,119.121620 37.109268,118.962158 
	C44.030907,118.799477 50.945335,118.329971 57.862919,117.994797 
z"/>
<path fill="#FD8309" opacity="1.000000" stroke="none" 
	d="
M87.892975,55.274975 
	C75.246513,48.575291 71.130035,32.367851 78.966866,20.131052 
	C87.044853,7.517725 104.292397,4.491899 116.041382,13.626894 
	C131.037903,25.286882 129.343079,46.675301 112.184875,55.627281 
	C110.344620,55.095707 109.014069,54.636700 107.676926,54.616631 
	C102.620018,54.540718 97.560081,54.558273 92.503250,54.649948 
	C90.963219,54.677868 89.429558,55.056805 87.892975,55.274975 
z"/>
<path fill="#FC7E01" opacity="1.000000" stroke="none" 
	d="
M122.951096,86.985703 
	C122.588959,85.747475 122.427040,84.402641 121.833382,83.287689 
	C116.521690,73.311737 119.205147,62.594105 128.398392,57.362621 
	C137.037186,52.446644 147.970612,55.217999 153.353317,63.688076 
	C159.073639,72.689407 156.565582,82.543144 146.176468,88.892349 
	C137.945007,88.185768 130.448044,87.585739 122.951096,86.985703 
z"/>
<path fill="#FC7E01" opacity="1.000000" stroke="none" 
	d="
M52.950649,89.125183 
	C44.231277,83.616982 41.726116,73.223358 47.008785,64.473068 
	C52.150272,55.956638 63.190533,53.103104 71.790749,58.067776 
	C80.801590,63.269493 84.114342,74.322685 79.225800,82.948097 
	C78.574493,84.097267 77.799484,85.176338 76.570312,86.641266 
	C70.268112,86.998756 64.469109,86.829247 58.691235,87.104004 
	C56.750057,87.196304 54.862637,88.419090 52.950649,89.125183 
z"/>
<path fill="#F97500" opacity="1.000000" stroke="none" 
	d="
M53.151489,89.429268 
	C54.862637,88.419090 56.750057,87.196304 58.691235,87.104004 
	C64.469109,86.829247 70.268112,86.998756 76.526871,86.993622 
	C82.444977,90.800446 88.565849,88.454872 94.386757,88.748825 
	C94.725883,88.765953 95.160172,86.898460 96.075546,85.459862 
	C99.713943,85.007988 102.826973,85.004265 105.940010,85.000534 
	C105.818069,88.062080 107.098808,89.490875 110.312462,88.980209 
	C114.281708,88.349480 118.272614,87.855026 122.602631,87.143692 
	C130.448044,87.585739 137.945007,88.185768 145.841766,88.953979 
	C138.452316,91.532913 130.712204,93.813133 123.428169,97.858955 
	C120.040710,99.740486 114.948715,98.849815 110.647842,98.696892 
	C107.176102,98.573441 105.656570,99.627510 105.729416,103.542610 
	C102.173706,103.958527 99.099602,103.979019 96.025497,103.999512 
	C95.864594,102.532913 95.703682,101.066315 95.479630,99.024170 
	C90.652336,99.024170 85.832245,99.407104 81.108337,98.897865 
	C77.597832,98.519432 73.445625,97.877213 70.959625,95.743896 
	C67.658463,92.911049 64.570992,91.853577 60.412289,91.885574 
	C58.064629,91.903641 55.706009,90.497803 53.151489,89.429268 
z"/>
<path fill="#FC6E00" opacity="1.000000" stroke="none" 
	d="
M185.065460,117.549881 
	C171.360641,117.999557 157.614761,118.037498 143.452148,118.036102 
	C144.732681,108.013649 151.489655,101.251472 161.237152,99.780998 
	C170.436295,98.393250 179.720764,103.076363 183.907410,111.484062 
	C184.733398,113.142853 184.674957,115.242050 185.065460,117.549881 
z"/>
<path fill="#FD6E00" opacity="1.000000" stroke="none" 
	d="
M57.877506,117.628998 
	C50.945335,118.329971 44.030907,118.799477 37.109268,118.962158 
	C30.325062,119.121620 23.533514,118.968826 16.262518,118.937195 
	C16.501261,110.498344 23.364750,102.929428 31.943226,101.096687 
	C41.186562,99.121910 51.619633,103.786209 55.690296,111.800247 
	C56.576069,113.544106 57.165939,115.438271 57.877506,117.628998 
z"/>
<path fill="#FB5B00" opacity="1.000000" stroke="none" 
	d="
M81.321808,136.252747 
	C86.580452,135.918839 91.705750,135.955292 97.282288,135.990021 
	C97.662186,139.908676 99.868446,142.175644 102.874733,144.458984 
	C106.334770,147.086960 109.133392,150.585785 111.970734,154.319458 
	C107.981285,155.288361 104.233437,155.584549 100.501701,156.019196 
	C97.606674,156.356384 94.731781,156.866501 91.847939,157.299744 
	C85.274605,151.964539 79.701561,146.113647 81.321808,136.252747 
z"/>
<path fill="#FD5300" opacity="1.000000" stroke="none" 
	d="
M91.934586,157.685562 
	C94.731781,156.866501 97.606674,156.356384 100.501701,156.019196 
	C104.233437,155.584549 107.981285,155.288361 112.075043,154.637283 
	C113.232819,159.955597 114.037766,165.569168 114.799118,171.646439 
	C113.953262,172.662170 113.130943,173.718674 112.351860,173.687683 
	C105.089958,173.398956 97.835487,172.923447 90.286201,172.250931 
	C92.297310,167.593979 94.871796,163.227570 91.934586,157.685562 
z"/>
<path fill="#FC6100" opacity="1.000000" stroke="none" 
	d="
M145.109436,131.318054 
	C157.848053,130.682312 170.636993,130.385559 183.921280,130.116486 
	C181.068741,138.374725 174.716095,142.501846 166.082245,143.152069 
	C156.699188,143.858704 149.770477,139.791306 145.109436,131.318054 
z"/>
<path fill="#F57B02" opacity="1.000000" stroke="none" 
	d="
M106.018188,84.537537 
	C102.826973,85.004265 99.713943,85.007988 96.195137,85.016899 
	C95.789368,76.297440 95.789368,67.572784 95.789368,58.894798 
	C92.804527,57.671013 90.564140,56.752453 88.108368,55.554436 
	C89.429558,55.056805 90.963219,54.677868 92.503250,54.649948 
	C97.560081,54.558273 102.620018,54.540718 107.676926,54.616631 
	C109.014069,54.636700 110.344620,55.095707 111.837379,55.668823 
	C110.103279,56.882374 108.209991,57.780273 106.096375,58.782665 
	C106.096375,67.173889 106.096375,75.624207 106.018188,84.537537 
z"/>
<path fill="#FA5F00" opacity="1.000000" stroke="none" 
	d="
M18.661404,134.304626 
	C19.824986,133.368073 21.093752,132.176270 22.377350,132.160080 
	C32.415722,132.033417 42.457127,132.111938 52.496902,132.203369 
	C53.245102,132.210190 53.987915,132.808609 55.066872,133.445557 
	C50.135841,145.503067 28.267855,149.722198 18.661404,134.304626 
z"/>
<path fill="#F96C00" opacity="1.000000" stroke="none" 
	d="
M95.933685,104.387085 
	C99.099602,103.979019 102.173706,103.958527 105.638916,103.968521 
	C106.184830,108.375229 106.339638,112.751442 106.395576,117.576981 
	C101.015450,117.986542 95.734200,117.946785 89.948074,117.879868 
	C94.004311,114.681412 95.672661,110.094780 95.933685,104.387085 
z"/>
</svg>