<!DOCTYPE svg PUBLIC "-//W3C//DTD SVG 1.1//EN" "http://www.w3.org/Graphics/SVG/1.1/DTD/svg11.dtd">

<!-- Uploaded to: SVG Repo, www.svgrepo.com, Transformed by: SVG Repo Mixer Tools -->
<svg width="75px" height="75px" viewBox="0 0 50 50" id="Message_And_Communication_Icons" version="1.1" xml:space="preserve" xmlns="http://www.w3.org/2000/svg" xmlns:xlink="http://www.w3.org/1999/xlink" fill="#000000">

<g id="SVGRepo_bgCarrier" stroke-width="0"/>

<g id="SVGRepo_tracerCarrier" stroke-linecap="round" stroke-linejoin="round"/>

<g id="SVGRepo_iconCarrier"> <g> <g> <g> <g> <path d="M25,4.6v4.3h8.7c0.3,0,0.5,0.2,0.5,0.5v31.4c0,0.3-0.2,0.5-0.5,0.5c0,0-6,0-6.6,0 c-0.6,0-0.4,0.2-0.3,0.4c0.2,0.3,0.3,0.7,0.3,1.1c0,1.2-0.9,2.1-2.1,2.1V47h12.6V4.6H25z" style="fill:#f4977b;"/> </g> </g> <g> <g> <g> <path d="M36.9,46.2H13.1V4h23.7V46.2z M14.3,45h21.3V5.2H14.3V45z" style="fill:#000000;"/> </g> </g> <g> <g> <path d="M36.9,46.2H13.1V4h23.7V46.2z M14.3,45h21.3V5.2H14.3V45z" style="fill:#000000;"/> </g> </g> </g> <g> <g> <g> <rect height="1.2" style="fill:#000000;" width="5.1" x="24" y="6.6"/> </g> </g> <g> <g> <rect height="1.2" style="fill:#000000;" width="1.6" x="20.9" y="6.6"/> </g> </g> </g> <g> <g> <path d="M25,44.2c-0.8,0-1.5-0.7-1.5-1.5s0.7-1.5,1.5-1.5s1.5,0.7,1.5,1.5S25.8,44.2,25,44.2z M25,42.4 c-0.2,0-0.3,0.1-0.3,0.3c0,0.2,0.1,0.3,0.3,0.3s0.3-0.1,0.3-0.3C25.3,42.5,25.2,42.4,25,42.4z" style="fill:#000000;"/> </g> </g> <g> <g> <rect height="28.2" style="fill:#000000;" width="1.2" x="15.1" y="11"/> </g> </g> </g> <g> <g> <g> <g> <path d="M30.3,23.1c-0.4-0.4-1-0.7-1.6-0.7c0.6,1,0.4,2.3-0.4,3.2l-4.2,4.2l1.7,1.7l0,0l0,0l4.5-4.5 C31.4,25.8,31.4,24.2,30.3,23.1z" style="fill:#f4977b"/> </g> </g> </g> <g> <g> <path d="M25.2,31.5l-0.4-0.4l-4.5-4.5c-0.6-0.6-1-1.4-1-2.3c0-0.9,0.3-1.7,1-2.3c1.2-1.2,3.4-1.2,4.6,0 l0.3,0.3l0.3-0.3c1.2-1.2,3.4-1.2,4.6,0l0,0v0l0,0c0.6,0.6,1,1.4,1,2.3c0,0.9-0.3,1.7-1,2.3L25.2,31.5z M25.1,29.8L25.1,29.8 l4.1-4c0.4-0.4,0.6-0.9,0.6-1.5s-0.2-1.1-0.6-1.5v0c-0.8-0.8-2.1-0.8-2.9,0L25.2,24L24,22.9c-0.8-0.8-2.1-0.8-2.9,0 c-0.4,0.4-0.6,0.9-0.6,1.5s0.2,1.1,0.6,1.5L25.1,29.8z" style="fill:#000000;"/> </g> </g> </g> </g> </g>

</svg>